IKResults
version=1
nRows=13
nColumns=40
inDegrees=yes

Units are S.I. units (second, meters, Newtons, ...)
Angles are in degrees.

endheader
time	pelvis_tilt	pelvis_list	pelvis_rotation	pelvis_tx	pelvis_ty	pelvis_tz	hip_flexion_r	hip_adduction_r	hip_rotation_r	knee_angle_r	knee_angle_r_beta	ankle_angle_r	subtalar_angle_r	mtp_angle_r	hip_flexion_l	hip_adduction_l	hip_rotation_l	knee_angle_l	knee_angle_l_beta	ankle_angle_l	subtalar_angle_l	mtp_angle_l	lumbar_extension	lumbar_bending	lumbar_rotation	arm_flex_r	arm_add_r	arm_rot_r	elbow_flex_r	pro_sup_r	wrist_flex_r	wrist_dev_r	arm_flex_l	arm_add_l	arm_rot_l	elbow_flex_l	pro_sup_l	wrist_flex_l	wrist_dev_l
      0.70000000	     15.54219699	      2.45061123	     -5.39523757	      0.31815047	      0.92355226	      1.44807974	    -25.90033671	     -5.05578297	     -5.69590857	    -40.92625987	     -0.71429799	    -10.68462640	     -5.07672466	     -2.46797426	      8.04855066	     -3.37717802	     17.68717131	    -25.22016316	     -0.44017489	      3.58241743	      5.67234134	     -6.10371319	    -21.47618773	     -7.07621320	      5.97819533	     -4.82164924	    -15.71084421	     -0.70769616	     60.33906361	     89.95437384	      0.00000000	      0.00000000	    -13.81147818	      8.79090268	     16.14193946	      9.11704646	     89.95437384	      0.00000000	      0.00000000
      0.71000000	     15.58557804	      2.85618493	     -5.19459794	      0.33412230	      0.92586283	      1.44677862	    -24.32832821	     -5.81103037	     -6.01756140	    -44.29107473	     -0.77302508	    -14.13860366	     -6.39797620	     -0.75123577	      7.02885445	     -4.43431898	     15.82557586	    -25.10875548	     -0.43823045	      3.93353307	      7.17792430	     -6.03857274	    -21.40057272	     -7.46220674	      5.31325529	     -4.99947866	    -15.28157153	     -0.27744899	     58.41801865	     89.95437384	      0.00000000	      0.00000000	    -13.60643885	      8.76672399	     16.14530649	      9.55460468	     89.95437384	      0.00000000	      0.00000000
      0.72000000	     15.57190331	      3.19254497	     -5.01290010	      0.34986946	      0.92775203	      1.44540079	    -22.50002460	     -6.61303946	     -6.44137839	    -47.60492421	     -0.83086267	    -18.02317554	     -7.79467498	      0.66948212	      6.10781849	     -5.12703815	     15.21495218	    -25.22994074	     -0.44034554	      4.55602036	      7.17075638	     -6.13469791	    -21.27091900	     -7.74171062	      4.67335057	     -5.17540968	    -14.96216382	      0.18905847	     56.54430517	     89.95437384	      0.00000000	      0.00000000	    -13.44609108	      8.75977984	     15.32964092	     10.07972082	     89.95437384	      0.00000000	      0.00000000
      0.73000000	     15.70170459	      3.20792314	     -4.95215233	      0.36536080	      0.92990290	      1.44450750	    -20.81508385	     -6.95835076	     -6.20064792	    -50.51149844	     -0.88159196	    -21.99131116	     -8.45049964	      1.49946397	      4.84315861	     -5.43002654	     14.99466543	    -25.18577857	     -0.43957476	      5.55952480	      7.05108002	     -6.15864348	    -21.34657205	     -7.75590344	      4.33477000	     -5.35538857	    -14.69132493	      0.64763426	     54.58177227	     89.95437384	      0.00000000	      0.00000000	    -13.08850223	      8.74280178	     14.99243940	     10.70078801	     89.95437384	      0.00000000	      0.00000000
      0.74000000	     15.57232349	      3.41977949	     -4.88467619	      0.37987734	      0.93151551	      1.44363779	    -18.53494739	     -7.35398268	     -6.02665154	    -53.59291554	     -0.93537283	    -25.31165907	    -11.21243509	      2.98107824	      3.87856260	     -5.94404505	     14.72971945	    -24.98262486	     -0.43602906	      6.20272709	      7.41660481	     -6.15885155	    -21.27789546	     -7.97741230	      3.85485955	     -5.40751427	    -14.46479125	      1.36597196	     52.62140608	     89.95437384	      0.00000000	      0.00000000	    -12.72094274	      8.78077964	     14.40109260	     11.62334190	     89.95437384	      0.00000000	      0.00000000
      0.75000000	     15.74252640	      3.29759196	     -4.88872672	      0.39442718	      0.93367845	      1.44321064	    -16.77793831	     -7.20793510	     -5.26331771	    -56.14321138	     -0.97988389	    -25.92562327	    -12.54812752	      3.50190722	      2.38986424	     -6.06738687	     14.48959019	    -24.52456621	     -0.42803443	      7.17416414	      7.00729828	     -6.19342619	    -21.52398201	     -7.88999505	      3.58649189	     -5.43274408	    -14.17416739	      1.89922696	     50.48660880	     89.95437384	      0.00000000	      0.00000000	    -12.04911087	      8.82069727	     14.17456353	     12.23244950	     89.95437384	      0.00000000	      0.00000000
      0.76000000	     15.85693701	      3.26783876	     -4.88611705	      0.40879379	      0.93558719	      1.44283098	    -14.98549872	     -7.09179319	     -4.65591239	    -58.53160894	     -1.02156929	    -23.82529778	    -14.19895574	      3.96298095	      1.03745349	     -6.21780510	     14.47790800	    -24.16382913	     -0.42173838	      7.74367507	      6.71333691	     -6.14862134	    -21.74568297	     -7.89270713	      3.23450024	     -5.47880324	    -13.94390566	      2.53808468	     48.49025833	     89.95437384	      0.00000000	      0.00000000	    -11.53250843	      8.89075763	     13.74743671	     13.20837341	     89.95437384	      0.00000000	      0.00000000
      0.77000000	     16.16904240	      3.05305732	     -4.64308233	      0.42301859	      0.93799618	      1.44226249	    -13.61161154	     -6.58468558	     -4.05944768	    -60.33764018	     -1.05309048	    -20.57860222	    -15.09901530	      3.86894162	     -0.59807163	     -6.15820960	     14.33881877	    -23.70253976	     -0.41368736	      8.32805188	      6.30751148	     -6.09278562	    -22.25601324	     -7.63880799	      2.79598946	     -5.48066971	    -13.63339614	      2.88543329	     46.27730011	     89.95437384	      0.00000000	      0.00000000	    -10.69934385	      9.00631624	     13.45891842	     13.93490123	     89.95437384	      0.00000000	      0.00000000
      0.78000000	     16.51271530	      2.78934515	     -4.45062317	      0.43720225	      0.94048069	      1.44186318	    -12.26112568	     -5.99900274	     -3.40331410	    -61.82101047	     -1.07898018	    -17.41092333	    -15.66547713	      3.76598443	     -2.35668436	     -6.02816831	     14.17674721	    -23.07971789	     -0.40281707	      8.86044780	      5.90062652	     -6.04424109	    -22.75213184	     -7.36739714	      2.39301823	     -5.45104403	    -13.32291060	      3.30116020	     44.01315970	     89.95437384	      0.00000000	      0.00000000	     -9.90433888	      9.11340924	     12.93227894	     14.71094501	     89.95437384	      0.00000000	      0.00000000
      0.79000000	     16.84526199	      2.51143048	     -4.22149386	      0.45124178	      0.94292468	      1.44137678	    -10.90563683	     -5.35935258	     -2.71033127	    -62.88968413	     -1.09763205	    -14.71981877	    -15.87792336	      3.71302095	     -4.12509067	     -5.89136541	     13.92141855	    -22.35845077	     -0.39022858	      9.30018350	      5.48947181	     -6.01041813	    -23.26643826	     -7.06211246	      1.94919014	     -5.39905981	    -13.03070705	      3.77066054	     41.64143293	     89.95437384	      0.00000000	      0.00000000	     -9.03219924	      9.27611456	     12.35917647	     15.50247341	     89.95437384	      0.00000000	      0.00000000
      0.80000000	     17.14590291	      2.24019666	     -3.88951421	      0.46529181	      0.94526908	      1.44075243	     -9.59060897	     -4.69900644	     -2.15087433	    -63.55195430	     -1.10919085	    -12.47841706	    -16.06258775	      3.73836447	     -5.84771753	     -5.74286388	     13.51701279	    -21.61543806	     -0.37726056	      9.63603472	      5.13014872	     -5.98769707	    -23.73633381	     -6.72995057	      1.41279747	     -5.34688923	    -12.72717393	      4.11674922	     39.25928547	     89.95437384	      0.00000000	      0.00000000	     -8.11714558	      9.47280004	     11.78668866	     16.28352934	     89.95437384	      0.00000000	      0.00000000
      0.81000000	     17.75075350	      2.06732009	     -3.41538945	      0.47950757	      0.94806644	      1.43980760	     -8.78712940	     -4.24837103	     -1.96403580	    -63.72166946	     -1.11215294	    -10.12081238	    -15.56710376	      5.43880442	     -8.14851787	     -5.82796466	     12.38060789	    -20.32924628	     -0.35481228	      9.63787190	      5.59474488	     -6.08758194	    -24.52775266	     -6.44464863	      0.73172532	     -5.39159096	    -12.47532265	      4.60578827	     36.98715560	     89.95437384	      0.00000000	      0.00000000	     -7.31739910	      9.81312292	     10.51850864	     17.43049677	     89.95437384	      0.00000000	      0.00000000
      0.82000000	     17.73229959	      1.71439427	     -2.86532254	      0.49318831	      0.94963541	      1.43888250	     -7.20725651	     -3.46904661	     -1.71186489	    -63.81209246	     -1.11373112	     -8.08147666	    -15.69157656	      5.54455549	     -9.33671984	     -5.45401100	     11.94457249	    -19.85074252	     -0.34646082	      9.90439897	      5.43113871	     -6.08091317	    -24.68058018	     -5.91670720	      0.12279128	     -5.38177288	    -12.14491806	      4.63707278	     34.58715266	     89.95437384	      0.00000000	      0.00000000	     -6.23920977	     10.00901691	     10.17836564	     18.12052192	     89.95437384	      0.00000000	      0.00000000
